inDegrees=yes
name=ik_tiny_file
DataType=double
version=3
OpenSimVersion=4.4-2022-07-23-0e9fedc
endheader
time	pelvis_tilt	pelvis_list	pelvis_rotation	pelvis_tx	pelvis_ty	pelvis_tz	hip_flexion_r	hip_adduction_r	hip_rotation_r	knee_angle_r	knee_angle_r_beta	ankle_angle_r	subtalar_angle_r	mtp_angle_r	hip_flexion_l	hip_adduction_l	hip_rotation_l	knee_angle_l	knee_angle_l_beta	ankle_angle_l	subtalar_angle_l	mtp_angle_l	lumbar_extension	lumbar_bending	lumbar_rotation	arm_flex_r	arm_add_r	arm_rot_r	elbow_flex_r	pro_sup_r	wrist_flex_r	wrist_dev_r	arm_flex_l	arm_add_l	arm_rot_l	elbow_flex_l	pro_sup_l	wrist_flex_l	wrist_dev_l
3.04	68.60995424340663	79.86630784152545	-68.01217060404053	0	0.9399999999999999	0	44.93464312101683	-10.00192016645143	0	59.99071587365534	1.047035512623712	-5.024090812157776	0	0	44.93464312101683	-10.00192016645143	0	59.99071587365534	1.047035512623712	-5.024090812157776	0	0	-9.341870880653284	3.24484258154301	0.7945475655326216	3.367609066303987	-7.998371196734075	-6.51482759101983	12.94826062409581	44.99834229179315	0	5.000000077366955	2.728594931523268	0.8369344411713853	-0.4758656270426202	0.09326593339358309	44.99834229179315	0	5.000000077366955
3.06	68.57739712798556	79.93120293718209	-68.082060127826	0	0.9399999999999999	0	44.93800771742423	-10.00164519586992	0	59.99111042699913	1.047042398878636	-5.022442651598161	0	0	44.93800771742423	-10.00164519586992	0	59.99111042699913	1.047042398878636	-5.022442651598161	0	0	-9.300073975566351	3.20515081621716	0.7530885659072764	3.420427018265158	-8.533554179604852	-7.761085184359528	15.81671195151364	44.99854141637822	0	5.000000090065905	2.710363674945133	0.8349587298154454	-0.4319988561070415	0.09349490236314635	44.99854141637822	0	5.000000090065905
3.08	68.56328848526188	79.95672923076684	-68.1602255639354	0	0.9399999999999999	0	44.93837969159054	-10.00162032974363	0	59.99116298393972	1.047043316170294	-5.022270592214512	0	0	44.93837969159054	-10.00162032974363	0	59.99116298393972	1.047043316170294	-5.022270592214512	0	0	-9.303097727341935	3.181293043723906	0.7103420499855441	3.416461994457737	-8.637839883308503	-9.63585888595833	19.5240494276677	44.99856000698848	0	5.000000091152232	2.725017724082731	0.8076549790321392	-0.4085974473173575	0.09419756238070641	44.99856000698848	0	5.000000091152232
3.1	68.53968054061414	79.97255274194337	-68.20763130323192	0	0.9399999999999999	0	44.93873177144916	-10.00159701965189	0	59.991212819548	1.047044185965743	-5.022108060494784	0	0	44.93873177144916	-10.00159701965189	0	59.991212819548	1.047044185965743	-5.022108060494784	0	0	-9.29100685942762	3.165299146522623	0.6807475779370782	3.363244892905265	-8.819962660078993	-11.58664978033314	23.16895398008699	44.99857747366584	0	5.000000092163839	2.716370862949003	0.7550610426547242	-0.3913698140465559	0.09432150801116525	44.99857747366584	0	5.000000092163839
3.12	68.50021221896634	79.9946488968681	-68.23887396902116	0	0.9399999999999999	0	44.93912063119429	-10.00157180660769	0	59.99126806933157	1.047045150256378	-5.021929247115433	0	0	44.93912063119429	-10.00157180660769	0	59.99126806933157	1.047045150256378	-5.021929247115433	0	0	-9.280285559415258	3.150979371619593	0.676112707900177	3.378824871684862	-8.898880697921992	-13.19706754103357	26.98725089371291	44.99859646789007	0	5.000000093239133	2.712709463184604	0.7267937997851246	-0.399964816495863	0.09425992294270021	44.99859646789007	0	5.000000093239133
3.14	68.45014316408418	80.04178959218237	-68.23903488972451	0	0.9399999999999999	0	44.93951739103559	-10.0015469018776	0	59.99132480483594	1.047046140477732	-5.021747898050656	0	0	44.93951739103559	-10.0015469018776	0	59.99132480483594	1.047046140477732	-5.021747898050656	0	0	-9.273964390329505	3.109523620706748	0.6534212982363692	3.504808374510559	-9.665828862977095	-13.50103320724429	30.00309901336223	44.99861538672691	0	5.000000094273075	2.793655063357619	0.6329452796541791	-0.4686970952624094	0.09526103310024171	44.99861538672691	0	5.000000094273075
3.16	68.40260208836911	80.033835757858	-68.23709222318898	0	0.9399999999999999	0	44.93995092125166	-10.00151967169386	0	59.99138654081163	1.047047217973774	-5.02154967721903	0	0	44.93995092125166	-10.00151967169386	0	59.99138654081163	1.047047217973774	-5.02154967721903	0	0	-9.249580303768084	3.111035948609475	0.6938084464087357	3.403079377896823	-10.06214022911629	-14.13862701187952	33.54151618688633	44.99863607306557	0	5.00000009540275	2.798927778707243	0.5602004289274322	-0.4529927343245388	0.09542356419586659	44.99863607306557	0	5.00000009540275
3.18	68.35066963986851	80.05070239935824	-68.2158103085427	0	0.9399999999999999	0	44.94035425655272	-10.00149432037519	0	59.99144370207507	1.047048215626026	-5.021365185970255	0	0	44.94035425655272	-10.00149432037519	0	59.99144370207507	1.047048215626026	-5.021365185970255	0	0	-9.213653379540821	3.103815367024459	0.736707664266805	3.430722896173979	-10.66444033723094	-14.7767426671036	36.89741864872106	44.99865533422199	0	5.000000096453237	2.80101488114757	0.5275674000111742	-0.4097735620389202	0.09567429019895193	44.99865533422199	0	5.000000096453237
3.2	68.30001744838869	80.04487322336007	-68.16937661336193	0	0.9399999999999999	0	44.9407640069392	-10.00146867221366	0	59.99150161398811	1.047049226379585	-5.021177864982704	0	0	44.9407640069392	-10.00146867221366	0	59.99150161398811	1.047049226379585	-5.021177864982704	0	0	-9.221087217972711	3.125165880929434	0.7679353098484459	3.408545320767618	-11.23338050436851	-15.55619428101967	40.40922520432309	44.99867484589004	0	5.000000097510971	2.808419273376042	0.5256241288298177	-0.380437090552829	0.09637137718525141	44.99867484589004	0	5.000000097510971
3.22	68.2760642905851	80.02012428134502	-68.12134581587964	0	0.9399999999999999	0	44.9411799154129	-10.00144325025959	0	59.99156083531828	1.047050259986784	-5.020988662017425	0	0	44.9411799154129	-10.00144325025959	0	59.99156083531828	1.047050259986784	-5.020988662017425	0	0	-9.244906283172098	3.158512238106873	0.7425053969719378	3.358737753497066	-11.55927733397979	-16.5127553647002	44.46637199786871	44.99869429365853	0	5.000000098542239	2.822918810460801	0.5227275818328355	-0.4162755427767394	0.09671997471650741	44.99869429365853	0	5.000000098542239
3.24	68.219525846541	80.03964318250623	-68.0520152256983	0	0.9399999999999999	0	44.94155228726424	-10.00142013865315	0	59.99161320167764	1.047051173952172	-5.020818637730227	0	0	44.94155228726424	-10.00142013865315	0	59.99161320167764	1.047051173952172	-5.020818637730227	0	0	-9.203207857852044	3.17535774299894	0.7569153098198549	3.458710951776592	-12.22672581528247	-17.13728665868291	47.94001322470758	44.99871192033635	0	5.000000099486604	2.831292814757838	0.543545752881892	-0.4417502732516299	0.09767092298593985	44.99871192033635	0	5.000000099486604
3.26	68.22096496023775	80.01338752819524	-68.00760525339525	0	0.9399999999999999	0	44.94188768302846	-10.00140009633056	0	59.99166103896094	1.047052008870271	-5.020666705787677	0	0	44.94188768302846	-10.00140009633056	0	59.99166103896094	1.047052008870271	-5.020666705787677	0	0	-9.282863530256309	3.210226459411558	0.7222719273426221	3.746428257832192	-12.75208995611064	-17.65758354155615	51.40038225839616	44.99872734149123	0	5.000000100284673	2.933066712358479	0.5422426583060836	-0.4908294980156531	0.09642531124703224	44.99872734149123	0	5.000000100284673
